<svg xmlns="http://www.w3.org/2000/svg" xmlns:xlink="http://www.w3.org/1999/xlink" width="1920" zoomAndPan="magnify" viewBox="0 0 1440 225" height="300" preserveAspectRatio="xMidYMid meet" version="1.0"><defs><g/><clipPath id="21c14ff04b"><path d="M 567.304688 49.867188 L 872.554688 49.867188 L 872.554688 102.367188 L 567.304688 102.367188 Z M 567.304688 49.867188 " clip-rule="nonzero"/></clipPath><clipPath id="1432716d93"><rect x="0" width="332" y="0" height="73"/></clipPath><clipPath id="d5142c2cda"><rect x="0" width="79" y="0" height="15"/></clipPath></defs><rect x="-144" width="1728" fill="#ffffff" y="-22.5" height="270" fill-opacity="1"/><rect x="-144" width="1728" fill="#1a1a1a" y="-22.5" height="270" fill-opacity="1"/><g clip-path="url(#21c14ff04b)"><path fill="#e5e7e9" d="M 872.636719 100.542969 C 871.386719 103.40625 842.34375 99.777344 838.5 99.335938 C 836.433594 99.097656 834.707031 98.898438 833.625 98.789062 L 833.1875 98.742188 L 832.984375 98.347656 C 830.992188 94.464844 828.144531 90.898438 824.074219 88.449219 C 820.003906 85.996094 814.6875 84.65625 807.75 85.21875 C 803.226562 85.585938 799.507812 86.773438 796.449219 88.503906 C 793.398438 90.234375 790.996094 92.511719 789.105469 95.066406 L 788.847656 95.417969 L 788.410156 95.394531 C 777.078125 94.792969 765.25 94.332031 753.035156 94.019531 C 741.183594 93.71875 728.871094 93.558594 716.203125 93.558594 C 711.917969 93.558594 707.925781 93.574219 704.21875 93.605469 C 700.089844 93.640625 695.960938 93.691406 691.835938 93.757812 L 691.585938 93.390625 C 689.828125 90.777344 688.421875 88.332031 687.796875 86.476562 C 687.492188 85.578125 687.367188 84.792969 687.457031 84.148438 C 687.570312 83.324219 687.992188 82.734375 688.78125 82.4375 C 689.152344 82.300781 689.597656 82.242188 690.117188 82.269531 C 726.4375 84.25 739.765625 85.140625 739.769531 85.078125 C 739.78125 84.839844 720.523438 83.484375 698.800781 81.410156 C 685.960938 80.1875 672.269531 78.882812 661.136719 77.71875 L 661.085938 77.710938 C 661.0625 77.707031 654.039062 76.425781 658.820312 83.992188 C 659.632812 85.273438 660.585938 86.730469 661.691406 88.28125 C 662.792969 89.824219 664.050781 91.464844 665.46875 93.125 L 666.5625 94.40625 L 664.878906 94.46875 C 660.3125 94.632812 655.796875 94.820312 651.335938 95.03125 C 646.898438 95.238281 642.507812 95.46875 638.171875 95.722656 L 637.664062 95.75 L 637.417969 95.308594 C 635.753906 92.335938 633.410156 89.652344 630.144531 87.640625 C 626.855469 85.613281 622.617188 84.265625 617.183594 83.984375 C 609.128906 83.566406 603.296875 85.410156 599.070312 88.34375 C 594.859375 91.265625 592.226562 95.289062 590.582031 99.238281 L 590.394531 99.679688 L 589.917969 99.734375 C 586.722656 100.097656 583.683594 100.460938 580.804688 100.832031 C 577.929688 101.199219 575.078125 101.589844 572.253906 102 L 571.683594 102.082031 L 571.414062 101.566406 C 569.777344 98.40625 568.214844 94.699219 567.59375 91.515625 C 567.273438 89.894531 567.195312 88.390625 567.46875 87.136719 C 567.765625 85.757812 568.464844 84.675781 569.695312 84.039062 C 570.09375 83.832031 570.535156 83.679688 571.035156 83.582031 C 578.054688 82.203125 579.707031 79.480469 579.136719 76.554688 C 578.535156 73.5 575.707031 70.101562 573.679688 67.664062 C 572.460938 66.199219 571.507812 65.054688 571.335938 64.292969 L 571.085938 63.175781 L 572.222656 63.304688 C 583.921875 64.648438 594.269531 65.066406 603.625 64.851562 C 612.96875 64.636719 621.347656 63.785156 629.109375 62.59375 L 629.242188 62.574219 L 629.390625 62.605469 C 657.757812 68.359375 724.984375 73.542969 760.902344 75.234375 C 768.121094 75.574219 774.0625 75.773438 778.15625 75.808594 C 782.121094 75.839844 783.308594 76.066406 780.097656 74.402344 C 779.5625 74.125 778.972656 73.769531 778.296875 73.378906 C 762.988281 64.605469 746.960938 59.605469 730.480469 57.5 C 712.265625 55.171875 693.488281 56.375 674.503906 59.921875 C 675.195312 61.140625 677.074219 63.628906 681.949219 66.921875 L 684.960938 68.957031 L 681.371094 68.402344 C 677.292969 67.773438 673.167969 67.292969 668.882812 66.789062 C 660.214844 65.777344 650.902344 64.6875 640.183594 62.207031 L 636.527344 61.359375 L 640.207031 60.617188 C 646.042969 59.4375 651.683594 58.101562 657.210938 56.792969 C 691.289062 48.726562 721.058594 41.679688 792.113281 73.277344 C 812.824219 72.152344 844.898438 84.644531 861.511719 92.835938 C 864.949219 94.53125 867.730469 96.046875 869.617188 97.21875 C 871.867188 98.617188 872.964844 99.789062 872.636719 100.542969 Z M 868.753906 98.597656 C 866.90625 97.449219 864.171875 95.964844 860.789062 94.296875 C 844.277344 86.152344 812.382812 73.71875 792.007812 74.910156 L 791.816406 74.921875 L 791.632812 74.839844 C 720.953125 43.375 691.40625 50.371094 657.578125 58.378906 C 653.253906 59.402344 648.863281 60.445312 644.246094 61.433594 C 653.347656 63.332031 661.457031 64.28125 669.070312 65.171875 C 672.246094 65.542969 675.332031 65.90625 678.363281 66.320312 C 673.28125 62.285156 672.554688 59.542969 672.554688 59.53125 L 672.3125 58.679688 L 673.183594 58.511719 C 692.667969 54.792969 711.957031 53.496094 730.683594 55.886719 C 749.429688 58.285156 767.597656 64.375 784.804688 75.429688 C 785.015625 75.5625 785.152344 75.738281 785.226562 75.949219 C 785.578125 77 782.992188 77.472656 778.144531 77.433594 C 773.996094 77.398438 768.035156 77.199219 760.828125 76.859375 C 724.925781 75.171875 657.765625 69.988281 629.21875 64.226562 C 621.457031 65.414062 613.058594 66.261719 603.65625 66.476562 C 595.195312 66.671875 585.945312 66.355469 575.648438 65.3125 C 573.320312 65.078125 573.398438 64.789062 574.929688 66.625 C 577.070312 69.199219 580.054688 72.785156 580.734375 76.242188 C 581.480469 80.058594 579.59375 83.5625 571.347656 85.179688 C 571 85.25 570.699219 85.351562 570.441406 85.484375 C 569.691406 85.871094 569.253906 86.570312 569.058594 87.472656 C 568.839844 88.5 568.914062 89.785156 569.191406 91.203125 C 569.75 94.054688 571.121094 97.378906 572.597656 100.304688 C 575.128906 99.941406 577.796875 99.578125 580.601562 99.21875 C 583.476562 98.851562 586.367188 98.5 589.265625 98.171875 C 591.027344 94.121094 593.792969 90.027344 598.148438 87.007812 C 602.644531 83.886719 608.808594 81.921875 617.265625 82.359375 C 623.003906 82.65625 627.492188 84.09375 630.996094 86.25 C 634.359375 88.320312 636.808594 91.046875 638.582031 94.066406 C 642.710938 93.828125 646.9375 93.609375 651.265625 93.40625 C 655.164062 93.222656 659.132812 93.054688 663.167969 92.902344 C 662.144531 91.644531 661.210938 90.40625 660.367188 89.222656 C 659.242188 87.648438 658.273438 86.164062 657.445312 84.855469 C 650.796875 74.339844 660.988281 76.039062 661.347656 76.105469 C 672.597656 77.28125 686.199219 78.578125 698.953125 79.792969 C 721.503906 81.945312 742.855469 84.523438 741.394531 85.160156 C 740.328125 85.742188 727.539062 85.941406 690.035156 83.894531 C 689.738281 83.878906 689.511719 83.902344 689.347656 83.960938 C 689.1875 84.023438 689.097656 84.164062 689.066406 84.371094 C 689.015625 84.753906 689.113281 85.296875 689.335938 85.960938 C 689.835938 87.449219 690.921875 89.402344 692.3125 91.542969 C 692.839844 92.351562 692.828125 92.117188 693.84375 92.101562 C 697.269531 92.050781 700.722656 92.007812 704.203125 91.980469 C 708.429688 91.945312 712.433594 91.929688 716.203125 91.929688 C 728.726562 91.929688 741.054688 92.089844 753.074219 92.394531 C 765.1875 92.703125 776.890625 93.160156 788.0625 93.75 C 790.039062 91.164062 792.523438 88.863281 795.648438 87.089844 C 798.90625 85.246094 802.847656 83.984375 807.621094 83.59375 C 814.929688 83 820.570312 84.4375 824.917969 87.054688 C 829.128906 89.589844 832.113281 93.234375 834.222656 97.214844 C 835.433594 97.339844 836.929688 97.515625 838.683594 97.714844 C 840.769531 97.957031 876.128906 103.179688 868.753906 98.597656 Z M 868.753906 98.597656 " fill-opacity="1" fill-rule="nonzero"/></g><g transform="matrix(1, 0, 0, 1, 555, 96)"><g clip-path="url(#1432716d93)"><g fill="#f90000" fill-opacity="1"><g transform="translate(2.155052, 53.835289)"><g><path d="M 24.078125 0.515625 C 19.210938 0.515625 15.207031 -0.335938 12.0625 -2.046875 C 8.925781 -3.753906 6.742188 -6.148438 5.515625 -9.234375 C 4.285156 -12.328125 4.085938 -15.910156 4.921875 -19.984375 C 5.503906 -22.847656 6.535156 -25.34375 8.015625 -27.46875 C 9.503906 -29.59375 11.316406 -31.363281 13.453125 -32.78125 C 15.597656 -34.195312 18.035156 -35.257812 20.765625 -35.96875 C 23.492188 -36.675781 26.375 -37.03125 29.40625 -37.03125 C 32.625 -37.03125 35.5 -36.640625 38.03125 -35.859375 C 40.570312 -35.078125 42.632812 -33.894531 44.21875 -32.3125 L 41.21875 -26.515625 C 39.488281 -27.929688 37.679688 -28.945312 35.796875 -29.5625 C 33.921875 -30.1875 31.738281 -30.5 29.25 -30.5 C 26.351562 -30.5 23.765625 -30.078125 21.484375 -29.234375 C 19.210938 -28.390625 17.34375 -27.109375 15.875 -25.390625 C 14.40625 -23.679688 13.394531 -21.519531 12.84375 -18.90625 C 12.289062 -16.175781 12.382812 -13.851562 13.125 -11.9375 C 13.863281 -10.019531 15.21875 -8.550781 17.1875 -7.53125 C 19.15625 -6.507812 21.675781 -6 24.75 -6 C 27.269531 -6 29.617188 -6.316406 31.796875 -6.953125 C 33.972656 -7.597656 36.164062 -8.644531 38.375 -10.09375 L 40.546875 -4.296875 C 39.128906 -3.222656 37.546875 -2.34375 35.796875 -1.65625 C 34.054688 -0.96875 32.191406 -0.429688 30.203125 -0.046875 C 28.222656 0.328125 26.179688 0.515625 24.078125 0.515625 Z M 24.078125 0.515625 "/></g></g></g><g fill="#f90000" fill-opacity="1"><g transform="translate(46.576418, 53.835289)"><g><path d="M 23.96875 0.515625 C 19.238281 0.515625 15.300781 -0.351562 12.15625 -2.09375 C 9.019531 -3.84375 6.832031 -6.273438 5.59375 -9.390625 C 4.351562 -12.515625 4.128906 -16.132812 4.921875 -20.25 C 5.503906 -22.9375 6.535156 -25.320312 8.015625 -27.40625 C 9.503906 -29.5 11.335938 -31.253906 13.515625 -32.671875 C 15.691406 -34.085938 18.085938 -35.164062 20.703125 -35.90625 C 23.328125 -36.65625 26.144531 -37.03125 29.15625 -37.03125 C 33.945312 -37.03125 37.890625 -36.164062 40.984375 -34.4375 C 44.078125 -32.707031 46.253906 -30.28125 47.515625 -27.15625 C 48.773438 -24.03125 48.988281 -20.429688 48.15625 -16.359375 C 47.570312 -13.597656 46.535156 -11.171875 45.046875 -9.078125 C 43.566406 -6.992188 41.742188 -5.242188 39.578125 -3.828125 C 37.421875 -2.410156 35.015625 -1.332031 32.359375 -0.59375 C 29.703125 0.144531 26.90625 0.515625 23.96875 0.515625 Z M 24.34375 -5.84375 C 27.101562 -5.84375 29.585938 -6.289062 31.796875 -7.1875 C 34.003906 -8.09375 35.847656 -9.398438 37.328125 -11.109375 C 38.816406 -12.816406 39.820312 -14.914062 40.34375 -17.40625 C 41.164062 -21.507812 40.550781 -24.742188 38.5 -27.109375 C 36.445312 -29.472656 33.191406 -30.65625 28.734375 -30.65625 C 26.003906 -30.65625 23.523438 -30.210938 21.296875 -29.328125 C 19.078125 -28.453125 17.234375 -27.164062 15.765625 -25.46875 C 14.296875 -23.78125 13.285156 -21.675781 12.734375 -19.15625 C 11.867188 -15.050781 12.476562 -11.804688 14.5625 -9.421875 C 16.65625 -7.035156 19.914062 -5.84375 24.34375 -5.84375 Z M 24.34375 -5.84375 "/></g></g></g><g fill="#f90000" fill-opacity="1"><g transform="translate(97.987151, 53.835289)"><g><path d="M 19.46875 0.515625 C 17.082031 0.515625 14.816406 0.347656 12.671875 0.015625 C 10.535156 -0.304688 8.601562 -0.800781 6.875 -1.46875 C 5.15625 -2.144531 3.675781 -2.914062 2.4375 -3.78125 L 5.328125 -9.625 C 6.710938 -8.726562 8.144531 -7.976562 9.625 -7.375 C 11.113281 -6.769531 12.726562 -6.328125 14.46875 -6.046875 C 16.21875 -5.773438 18.144531 -5.640625 20.25 -5.640625 C 22.425781 -5.640625 24.265625 -5.800781 25.765625 -6.125 C 27.265625 -6.457031 28.453125 -6.96875 29.328125 -7.65625 C 30.210938 -8.351562 30.738281 -9.164062 30.90625 -10.09375 C 31.15625 -11.132812 31.050781 -11.9375 30.59375 -12.5 C 30.144531 -13.070312 29.457031 -13.503906 28.53125 -13.796875 C 27.601562 -14.085938 26.445312 -14.304688 25.0625 -14.453125 L 16.671875 -15.484375 C 12.460938 -16.066406 9.535156 -17.273438 7.890625 -19.109375 C 6.253906 -20.941406 5.765625 -23.441406 6.421875 -26.609375 C 6.796875 -28.410156 7.519531 -29.945312 8.59375 -31.21875 C 9.664062 -32.5 11.035156 -33.578125 12.703125 -34.453125 C 14.378906 -35.335938 16.28125 -35.988281 18.40625 -36.40625 C 20.53125 -36.820312 22.851562 -37.03125 25.375 -37.03125 C 28.71875 -37.03125 31.65625 -36.640625 34.1875 -35.859375 C 36.726562 -35.078125 38.726562 -33.984375 40.1875 -32.578125 L 37.4375 -26.921875 C 35.78125 -28.304688 33.953125 -29.304688 31.953125 -29.921875 C 29.953125 -30.546875 27.46875 -30.859375 24.5 -30.859375 C 22.488281 -30.859375 20.734375 -30.675781 19.234375 -30.3125 C 17.734375 -29.957031 16.539062 -29.429688 15.65625 -28.734375 C 14.78125 -28.046875 14.222656 -27.1875 13.984375 -26.15625 C 13.703125 -24.875 14.035156 -23.867188 14.984375 -23.140625 C 15.941406 -22.421875 17.554688 -21.90625 19.828125 -21.59375 L 27.75 -20.5 C 31.96875 -19.914062 34.984375 -18.796875 36.796875 -17.140625 C 38.609375 -15.484375 39.1875 -12.945312 38.53125 -9.53125 C 38.144531 -7.832031 37.429688 -6.363281 36.390625 -5.125 C 35.359375 -3.882812 34.015625 -2.835938 32.359375 -1.984375 C 30.703125 -1.140625 28.800781 -0.507812 26.65625 -0.09375 C 24.519531 0.3125 22.125 0.515625 19.46875 0.515625 Z M 19.46875 0.515625 "/></g></g></g><g fill="#f90000" fill-opacity="1"><g transform="translate(139.457441, 53.835289)"><g><path d="M 14.453125 0 L 19.265625 -30.296875 L 3.421875 -30.296875 L 4.40625 -36.5 L 43.75 -36.5 L 42.765625 -30.296875 L 26.921875 -30.296875 L 22.15625 0 Z M 14.453125 0 "/></g></g></g><g fill="#f90000" fill-opacity="1"><g transform="translate(180.099361, 53.835289)"><g><path d="M 19.46875 0.515625 C 17.082031 0.515625 14.816406 0.347656 12.671875 0.015625 C 10.535156 -0.304688 8.601562 -0.800781 6.875 -1.46875 C 5.15625 -2.144531 3.675781 -2.914062 2.4375 -3.78125 L 5.328125 -9.625 C 6.710938 -8.726562 8.144531 -7.976562 9.625 -7.375 C 11.113281 -6.769531 12.726562 -6.328125 14.46875 -6.046875 C 16.21875 -5.773438 18.144531 -5.640625 20.25 -5.640625 C 22.425781 -5.640625 24.265625 -5.800781 25.765625 -6.125 C 27.265625 -6.457031 28.453125 -6.96875 29.328125 -7.65625 C 30.210938 -8.351562 30.738281 -9.164062 30.90625 -10.09375 C 31.15625 -11.132812 31.050781 -11.9375 30.59375 -12.5 C 30.144531 -13.070312 29.457031 -13.503906 28.53125 -13.796875 C 27.601562 -14.085938 26.445312 -14.304688 25.0625 -14.453125 L 16.671875 -15.484375 C 12.460938 -16.066406 9.535156 -17.273438 7.890625 -19.109375 C 6.253906 -20.941406 5.765625 -23.441406 6.421875 -26.609375 C 6.796875 -28.410156 7.519531 -29.945312 8.59375 -31.21875 C 9.664062 -32.5 11.035156 -33.578125 12.703125 -34.453125 C 14.378906 -35.335938 16.28125 -35.988281 18.40625 -36.40625 C 20.53125 -36.820312 22.851562 -37.03125 25.375 -37.03125 C 28.71875 -37.03125 31.65625 -36.640625 34.1875 -35.859375 C 36.726562 -35.078125 38.726562 -33.984375 40.1875 -32.578125 L 37.4375 -26.921875 C 35.78125 -28.304688 33.953125 -29.304688 31.953125 -29.921875 C 29.953125 -30.546875 27.46875 -30.859375 24.5 -30.859375 C 22.488281 -30.859375 20.734375 -30.675781 19.234375 -30.3125 C 17.734375 -29.957031 16.539062 -29.429688 15.65625 -28.734375 C 14.78125 -28.046875 14.222656 -27.1875 13.984375 -26.15625 C 13.703125 -24.875 14.035156 -23.867188 14.984375 -23.140625 C 15.941406 -22.421875 17.554688 -21.90625 19.828125 -21.59375 L 27.75 -20.5 C 31.96875 -19.914062 34.984375 -18.796875 36.796875 -17.140625 C 38.609375 -15.484375 39.1875 -12.945312 38.53125 -9.53125 C 38.144531 -7.832031 37.429688 -6.363281 36.390625 -5.125 C 35.359375 -3.882812 34.015625 -2.835938 32.359375 -1.984375 C 30.703125 -1.140625 28.800781 -0.507812 26.65625 -0.09375 C 24.519531 0.3125 22.125 0.515625 19.46875 0.515625 Z M 19.46875 0.515625 "/></g></g></g><g fill="#f90000" fill-opacity="1"><g transform="translate(221.569651, 53.835289)"><g/></g></g><g fill="#f90000" fill-opacity="1"><g transform="translate(239.224296, 53.835289)"><g><path d="M 23.96875 0.515625 C 19.238281 0.515625 15.300781 -0.351562 12.15625 -2.09375 C 9.019531 -3.84375 6.832031 -6.273438 5.59375 -9.390625 C 4.351562 -12.515625 4.128906 -16.132812 4.921875 -20.25 C 5.503906 -22.9375 6.535156 -25.320312 8.015625 -27.40625 C 9.503906 -29.5 11.335938 -31.253906 13.515625 -32.671875 C 15.691406 -34.085938 18.085938 -35.164062 20.703125 -35.90625 C 23.328125 -36.65625 26.144531 -37.03125 29.15625 -37.03125 C 33.945312 -37.03125 37.890625 -36.164062 40.984375 -34.4375 C 44.078125 -32.707031 46.253906 -30.28125 47.515625 -27.15625 C 48.773438 -24.03125 48.988281 -20.429688 48.15625 -16.359375 C 47.570312 -13.597656 46.535156 -11.171875 45.046875 -9.078125 C 43.566406 -6.992188 41.742188 -5.242188 39.578125 -3.828125 C 37.421875 -2.410156 35.015625 -1.332031 32.359375 -0.59375 C 29.703125 0.144531 26.90625 0.515625 23.96875 0.515625 Z M 24.34375 -5.84375 C 27.101562 -5.84375 29.585938 -6.289062 31.796875 -7.1875 C 34.003906 -8.09375 35.847656 -9.398438 37.328125 -11.109375 C 38.816406 -12.816406 39.820312 -14.914062 40.34375 -17.40625 C 41.164062 -21.507812 40.550781 -24.742188 38.5 -27.109375 C 36.445312 -29.472656 33.191406 -30.65625 28.734375 -30.65625 C 26.003906 -30.65625 23.523438 -30.210938 21.296875 -29.328125 C 19.078125 -28.453125 17.234375 -27.164062 15.765625 -25.46875 C 14.296875 -23.78125 13.285156 -21.675781 12.734375 -19.15625 C 11.867188 -15.050781 12.476562 -11.804688 14.5625 -9.421875 C 16.65625 -7.035156 19.914062 -5.84375 24.34375 -5.84375 Z M 24.34375 -5.84375 "/></g></g></g><g fill="#f90000" fill-opacity="1"><g transform="translate(290.63503, 53.835289)"><g><path d="M 3.46875 0 L 9.265625 -36.5 L 39.09375 -36.5 L 38.109375 -30.546875 L 16.046875 -30.546875 L 14.546875 -21.171875 L 35.265625 -21.171875 L 34.328125 -15.21875 L 13.5625 -15.21875 L 11.1875 0 Z M 3.46875 0 "/></g></g></g></g></g><g transform="matrix(1, 0, 0, 1, 683, 162)"><g clip-path="url(#d5142c2cda)"><g fill="#e5e7e9" fill-opacity="1"><g transform="translate(0.576882, 9.785483)"><g><path d="M 2.953125 0 L 3.921875 -6.171875 L 0.703125 -6.171875 L 0.890625 -7.453125 L 8.921875 -7.453125 L 8.71875 -6.171875 L 5.5 -6.171875 L 4.515625 0 Z M 2.953125 0 "/></g></g></g><g fill="#e5e7e9" fill-opacity="1"><g transform="translate(12.974725, 9.785483)"><g><path d="M 0.703125 0 L 1.890625 -7.453125 L 6.03125 -7.453125 C 6.695312 -7.453125 7.25 -7.359375 7.6875 -7.171875 C 8.125 -6.984375 8.429688 -6.710938 8.609375 -6.359375 C 8.796875 -6.003906 8.832031 -5.5625 8.71875 -5.03125 C 8.632812 -4.601562 8.453125 -4.242188 8.171875 -3.953125 C 7.898438 -3.660156 7.539062 -3.4375 7.09375 -3.28125 C 6.644531 -3.125 6.125 -3.03125 5.53125 -3 L 5.625 -3.09375 L 6.03125 -3.078125 C 6.300781 -3.066406 6.539062 -3.003906 6.75 -2.890625 C 6.957031 -2.773438 7.132812 -2.582031 7.28125 -2.3125 L 8.546875 0 L 6.71875 0 L 5.53125 -2.28125 C 5.445312 -2.425781 5.351562 -2.539062 5.25 -2.625 C 5.15625 -2.707031 5.03125 -2.765625 4.875 -2.796875 C 4.71875 -2.835938 4.507812 -2.859375 4.25 -2.859375 L 2.734375 -2.859375 L 2.28125 0 Z M 2.90625 -3.984375 L 5.265625 -3.984375 C 5.859375 -3.984375 6.304688 -4.078125 6.609375 -4.265625 C 6.910156 -4.453125 7.101562 -4.734375 7.1875 -5.109375 C 7.269531 -5.503906 7.191406 -5.789062 6.953125 -5.96875 C 6.710938 -6.15625 6.289062 -6.25 5.6875 -6.25 L 3.265625 -6.25 Z M 2.90625 -3.984375 "/></g></g></g><g fill="#e5e7e9" fill-opacity="1"><g transform="translate(26.323805, 9.785483)"><g><path d="M -0.296875 0 L 5.03125 -7.453125 L 6.40625 -7.453125 L 9.359375 0 L 7.8125 0 L 7.015625 -2.109375 L 7.640625 -1.609375 L 2.015625 -1.609375 L 2.859375 -2.109375 L 1.390625 0 Z M 5.53125 -6.015625 L 3.078125 -2.421875 L 2.71875 -2.8125 L 7.3125 -2.8125 L 6.890625 -2.453125 L 5.578125 -6.015625 Z M 5.53125 -6.015625 "/></g></g></g><g fill="#e5e7e9" fill-opacity="1"><g transform="translate(40.338763, 9.785483)"><g><path d="M 3.546875 0 L 0.671875 -7.453125 L 2.375 -7.453125 L 4.578125 -1.453125 L 4.28125 -1.453125 L 8.40625 -7.453125 L 10.1875 -7.453125 L 4.9375 0 Z M 3.546875 0 "/></g></g></g><g fill="#e5e7e9" fill-opacity="1"><g transform="translate(53.751265, 9.785483)"><g><path d="M 0.703125 0 L 1.890625 -7.453125 L 8.0625 -7.453125 L 7.859375 -6.234375 L 3.203125 -6.234375 L 2.921875 -4.390625 L 7.21875 -4.390625 L 7.03125 -3.171875 L 2.71875 -3.171875 L 2.40625 -1.21875 L 7.0625 -1.21875 L 6.875 0 Z M 0.703125 0 "/></g></g></g><g fill="#e5e7e9" fill-opacity="1"><g transform="translate(65.916576, 9.785483)"><g><path d="M 0.703125 0 L 1.890625 -7.453125 L 3.453125 -7.453125 L 2.484375 -1.28125 L 7 -1.28125 L 6.78125 0 Z M 0.703125 0 "/></g></g></g></g></g></svg>